<?xml version="1.0" encoding="UTF-8"?>
<svg xmlns="http://www.w3.org/2000/svg" xmlns:xlink="http://www.w3.org/1999/xlink" width="1440pt" height="809.999993pt" viewBox="0 0 1440 809.999993" version="1.2">
<defs>
<clipPath id="clip1">
  <path d="M 458.300781 214.132812 L 955.433594 214.132812 L 955.433594 595.882812 L 458.300781 595.882812 Z M 458.300781 214.132812 "/>
</clipPath>
</defs>
<g id="surface1">
<rect x="0" y="0" width="1440" height="809.999993" style="fill:rgb(100%,100%,100%);fill-opacity:1;stroke:none;"/>
<rect x="0" y="0" width="1440" height="809.999993" style="fill:rgb(100%,100%,100%);fill-opacity:1;stroke:none;"/>
<rect x="0" y="0" width="1440" height="809.999993" style="fill:rgb(100%,100%,100%);fill-opacity:1;stroke:none;"/>
<path style=" stroke:none;fill-rule:nonzero;fill:rgb(100%,100%,100%);fill-opacity:1;" d="M 706.917969 563.90625 L 706.898438 563.910156 L 719.726562 565.984375 L 719.726562 231.3125 L 706.917969 229.238281 L 706.917969 563.90625 "/>
<path style=" stroke:none;fill-rule:nonzero;fill:rgb(100%,100%,100%);fill-opacity:1;" d="M 706.882812 229.234375 L 706.882812 229.238281 L 706.898438 229.238281 Z M 706.882812 229.234375 "/>
<path style=" stroke:none;fill-rule:nonzero;fill:rgb(100%,100%,100%);fill-opacity:1;" d="M 589.085938 582.921875 L 601.8125 580.871094 L 601.8125 246.195312 L 589.085938 248.25 L 589.085938 582.921875 "/>
<path style=" stroke:none;fill-rule:nonzero;fill:rgb(100%,100%,100%);fill-opacity:1;" d="M 576.273438 580.871094 L 589 582.921875 L 589 248.25 L 576.273438 246.195312 L 576.273438 580.871094 "/>
<path style=" stroke:none;fill-rule:nonzero;fill:rgb(100%,100%,100%);fill-opacity:1;" d="M 706.917969 229.234375 L 706.898438 229.238281 L 706.917969 229.238281 Z M 706.917969 229.234375 "/>
<path style=" stroke:none;fill-rule:nonzero;fill:rgb(100%,100%,100%);fill-opacity:1;" d="M 706.882812 229.238281 L 694.066406 231.3125 L 694.066406 565.984375 L 706.898438 563.910156 L 706.882812 563.90625 L 706.882812 229.238281 "/>
<path style=" stroke:none;fill-rule:nonzero;fill:rgb(100%,100%,100%);fill-opacity:1;" d="M 824.796875 582.921875 L 837.527344 580.871094 L 837.527344 246.195312 L 824.796875 248.25 L 824.796875 582.921875 "/>
<path style=" stroke:none;fill-rule:nonzero;fill:rgb(100%,100%,100%);fill-opacity:1;" d="M 824.707031 248.25 L 811.988281 246.195312 L 811.988281 580.871094 L 824.707031 582.921875 L 824.707031 248.25 "/>
<g clip-path="url(#clip1)" clip-rule="nonzero">
<path style=" stroke:none;fill-rule:nonzero;fill:rgb(100%,100%,100%);fill-opacity:1;" d="M 942.632812 563.90625 L 837.527344 580.871094 L 824.796875 582.921875 L 824.796875 248.25 L 837.527344 246.195312 L 942.632812 229.234375 Z M 824.707031 582.921875 L 811.988281 580.871094 L 719.726562 565.984375 L 706.898438 563.910156 L 694.066406 565.984375 L 601.8125 580.871094 L 589.085938 582.921875 L 589.085938 248.25 L 601.8125 246.195312 L 694.066406 231.3125 L 706.882812 229.238281 L 706.882812 229.234375 L 706.898438 229.238281 L 706.917969 229.234375 L 706.917969 229.238281 L 719.726562 231.3125 L 811.988281 246.195312 L 824.707031 248.25 Z M 589 582.921875 L 576.273438 580.871094 L 471.171875 563.90625 L 471.171875 229.234375 L 576.273438 246.195312 L 589 248.25 Z M 940.59375 216.574219 L 824.757812 235.269531 L 719.726562 218.324219 L 708.921875 216.574219 L 706.898438 216.246094 L 704.878906 216.574219 L 694.066406 218.324219 L 589.046875 235.269531 L 473.210938 216.574219 L 458.351562 214.175781 L 458.351562 574.828125 L 469.128906 576.570312 L 576.273438 593.855469 L 586.957031 595.582031 L 589.046875 595.921875 L 591.125 595.582031 L 601.8125 593.855469 L 706.898438 576.898438 L 811.988281 593.855469 L 822.667969 595.582031 L 824.757812 595.921875 L 826.839844 595.582031 L 837.527344 593.855469 L 944.671875 576.570312 L 955.445312 574.828125 L 955.445312 214.175781 L 940.59375 216.574219 "/>
</g>
<path style=" stroke:none;fill-rule:nonzero;fill:rgb(30.979919%,72.549438%,59.21936%);fill-opacity:1;" d="M 589 582.921875 L 471.171875 563.90625 L 471.171875 229.234375 L 589 248.25 L 589 582.921875 "/>
<path style=" stroke:none;fill-rule:nonzero;fill:rgb(30.979919%,72.549438%,59.21936%);fill-opacity:1;" d="M 589 582.921875 L 471.171875 563.90625 L 471.171875 229.234375 L 589 248.25 L 589 582.921875 "/>
<path style=" stroke:none;fill-rule:nonzero;fill:rgb(38.819885%,56.469727%,31.759644%);fill-opacity:1;" d="M 589.085938 582.921875 L 706.917969 563.90625 L 706.917969 229.234375 L 589.085938 248.25 L 589.085938 582.921875 "/>
<path style=" stroke:none;fill-rule:nonzero;fill:rgb(63.139343%,82.348633%,52.159119%);fill-opacity:1;" d="M 824.707031 582.921875 L 706.882812 563.90625 L 706.882812 229.234375 L 824.707031 248.25 L 824.707031 582.921875 "/>
<path style=" stroke:none;fill-rule:nonzero;fill:rgb(38.819885%,56.469727%,31.759644%);fill-opacity:1;" d="M 824.796875 582.921875 L 942.632812 563.90625 L 942.632812 229.234375 L 824.796875 248.25 L 824.796875 582.921875 "/>
<path style=" stroke:none;fill-rule:nonzero;fill:rgb(63.139343%,82.348633%,52.159119%);fill-opacity:1;" d="M 589 582.921875 L 471.171875 563.90625 L 471.171875 229.234375 L 589 248.25 L 589 582.921875 "/>
<path style=" stroke:none;fill-rule:nonzero;fill:rgb(30.979919%,72.549438%,59.21936%);fill-opacity:1;" d="M 589 461.125 L 589 248.25 L 471.171875 229.234375 L 471.171875 492.207031 L 588.664062 460.980469 L 589 461.125 "/>
<path style=" stroke:none;fill-rule:nonzero;fill:rgb(23.919678%,58.81958%,47.44873%);fill-opacity:1;" d="M 942.632812 515.058594 L 942.632812 229.234375 L 824.796875 248.25 L 824.796875 471.070312 L 825.257812 470.914062 L 942.632812 515.058594 "/>
<path style=" stroke:none;fill-rule:nonzero;fill:rgb(30.979919%,72.549438%,59.21936%);fill-opacity:1;" d="M 706.882812 229.234375 L 706.882812 229.238281 L 706.898438 229.234375 Z M 706.882812 229.234375 "/>
<path style=" stroke:none;fill-rule:nonzero;fill:rgb(30.979919%,72.549438%,59.21936%);fill-opacity:1;" d="M 824.707031 471.101562 L 824.707031 248.25 L 706.917969 229.238281 L 706.917969 512.128906 L 824.707031 471.101562 "/>
<path style=" stroke:none;fill-rule:nonzero;fill:rgb(23.919678%,58.81958%,47.44873%);fill-opacity:1;" d="M 706.917969 527.046875 L 706.882812 527.058594 L 706.882812 563.90625 L 706.898438 563.910156 L 706.917969 563.90625 L 706.917969 527.046875 "/>
<path style=" stroke:none;fill-rule:nonzero;fill:rgb(23.919678%,58.81958%,47.44873%);fill-opacity:1;" d="M 706.882812 512.140625 L 706.882812 229.238281 L 589.085938 248.25 L 589.085938 461.167969 L 705.75 512.53125 L 706.882812 512.140625 "/>
<path style=" stroke:none;fill-rule:nonzero;fill:rgb(23.919678%,58.81958%,47.44873%);fill-opacity:1;" d="M 706.917969 229.234375 L 706.898438 229.234375 L 706.917969 229.238281 Z M 706.917969 229.234375 "/>
<path style=" stroke:none;fill-rule:nonzero;fill:rgb(23.919678%,58.81958%,47.44873%);fill-opacity:1;" d="M 706.917969 512.128906 L 706.917969 229.238281 L 706.898438 229.234375 L 706.882812 229.238281 L 706.882812 512.140625 L 706.917969 512.128906 "/>
<path style=" stroke:none;fill-rule:nonzero;fill:rgb(100%,100%,100%);fill-opacity:1;" d="M 589 461.125 L 589 476.523438 L 589.085938 476.558594 L 589.085938 461.167969 L 589 461.125 "/>
<path style=" stroke:none;fill-rule:nonzero;fill:rgb(100%,100%,100%);fill-opacity:1;" d="M 824.707031 471.101562 L 824.707031 486.023438 L 824.796875 485.996094 L 824.796875 471.070312 L 824.707031 471.101562 "/>
<path style=" stroke:none;fill-rule:nonzero;fill:rgb(100%,100%,100%);fill-opacity:1;" d="M 706.882812 527.058594 L 706.917969 527.046875 L 706.917969 512.128906 L 706.882812 512.140625 L 706.882812 527.058594 "/>
<path style=" stroke:none;fill-rule:nonzero;fill:rgb(60.389709%,69.799805%,80.778503%);fill-opacity:1;" d="M 708.390625 351.578125 L 706.882812 348.261719 L 706.882812 521.097656 L 739.683594 506.589844 L 779.585938 409.511719 L 757.679688 387.59375 L 708.390625 351.578125 "/>
<path style=" stroke:none;fill-rule:nonzero;fill:rgb(30.979919%,41.958618%,53.729248%);fill-opacity:1;" d="M 589.085938 248.25 L 589.085938 469.199219 L 706.039062 521.464844 L 706.917969 521.085938 L 706.917969 348.335938 L 656.570312 237.363281 L 589.085938 248.25 "/>
<path style=" stroke:none;fill-rule:nonzero;fill:rgb(60.389709%,69.799805%,80.778503%);fill-opacity:1;" d="M 471.171875 500.460938 L 588.675781 469.011719 L 589 469.160156 L 589 248.25 L 471.171875 229.234375 L 471.171875 500.460938 "/>
<path style=" stroke:none;fill-rule:nonzero;fill:rgb(66.268921%,66.668701%,15.689087%);fill-opacity:1;" d="M 706.882812 527.058594 L 706.882812 512.140625 L 705.75 512.53125 L 589.085938 461.167969 L 589.085938 476.558594 L 705.152344 527.660156 L 706.882812 527.058594 "/>
<path style=" stroke:none;fill-rule:nonzero;fill:rgb(96.469116%,95.689392%,36.859131%);fill-opacity:1;" d="M 588.664062 460.980469 L 471.171875 492.207031 L 471.171875 506.796875 L 587.507812 475.867188 L 589 476.523438 L 589 461.125 L 588.664062 460.980469 "/>
<path style=" stroke:none;fill-rule:nonzero;fill:rgb(67.83905%,67.83905%,67.449951%);fill-opacity:1;" d="M 706.882812 348.261719 L 706.917969 348.289062 L 706.917969 229.234375 L 656.167969 237.425781 L 706.882812 348.261719 "/>
<path style=" stroke:none;fill-rule:nonzero;fill:rgb(92.549133%,91.369629%,87.059021%);fill-opacity:1;" d="M 824.707031 248.25 L 706.882812 229.234375 L 706.882812 348.261719 L 780.570312 404.421875 L 747.117188 505.414062 L 824.578125 476.644531 L 824.707031 476.695312 L 824.707031 248.25 "/>
<path style=" stroke:none;fill-rule:nonzero;fill:rgb(67.83905%,67.83905%,67.449951%);fill-opacity:1;" d="M 824.796875 476.726562 L 942.632812 521.902344 L 942.632812 229.234375 L 824.796875 248.25 L 824.796875 476.726562 "/>
<path style=" stroke:none;fill-rule:nonzero;fill:rgb(66.268921%,66.668701%,15.689087%);fill-opacity:1;" d="M 825.257812 470.914062 L 824.796875 471.070312 L 824.796875 485.996094 L 825.078125 485.898438 L 942.632812 530.113281 L 942.632812 515.058594 L 825.257812 470.914062 "/>
<path style=" stroke:none;fill-rule:nonzero;fill:rgb(96.469116%,95.689392%,36.859131%);fill-opacity:1;" d="M 706.917969 357.09375 L 772.710938 410.1875 L 736.863281 501.699219 L 754.382812 495.597656 L 789.597656 405.714844 L 706.917969 338.988281 L 706.917969 357.09375 "/>
<path style=" stroke:none;fill-rule:nonzero;fill:rgb(66.268921%,66.668701%,15.689087%);fill-opacity:1;" d="M 706.882812 357.015625 L 706.882812 338.914062 L 661.613281 236.546875 L 653.605469 237.839844 L 706.882812 357.015625 "/>
<path style=" stroke:none;fill-rule:nonzero;fill:rgb(96.469116%,95.689392%,36.859131%);fill-opacity:1;" d="M 706.917969 512.128906 L 706.917969 527.046875 L 824.707031 486.023438 L 824.707031 471.101562 L 706.917969 512.128906 "/>
<path style=" stroke:none;fill-rule:nonzero;fill:rgb(96.469116%,95.689392%,36.859131%);fill-opacity:1;" d="M 824.707031 534.683594 L 776.882812 490.988281 L 770.554688 497.925781 L 824.707031 547.410156 L 824.707031 534.683594 "/>
<path style=" stroke:none;fill-rule:nonzero;fill:rgb(66.268921%,66.668701%,15.689087%);fill-opacity:1;" d="M 901.175781 570.597656 L 923.671875 566.96875 L 824.796875 534.707031 L 824.796875 547.4375 L 901.175781 570.597656 "/>
<path style=" stroke:none;fill-rule:nonzero;fill:rgb(90.19928%,23.919678%,18.818665%);fill-opacity:1;" d="M 643.25 377.839844 C 637.101562 377.839844 632.113281 372.847656 632.113281 366.699219 C 632.113281 360.539062 637.101562 355.550781 643.25 355.550781 C 649.398438 355.550781 654.386719 360.539062 654.386719 366.699219 C 654.386719 372.847656 649.398438 377.839844 643.25 377.839844 Z M 666.722656 366.699219 C 666.722656 353.722656 656.210938 343.207031 643.25 343.207031 C 630.28125 343.207031 619.777344 353.722656 619.777344 366.699219 C 619.777344 371.234375 621.121094 375.429688 623.347656 379.019531 L 623.191406 379.023438 L 643.175781 410.488281 L 663.636719 378.441406 L 663.460938 378.441406 C 665.480469 374.976562 666.722656 370.996094 666.722656 366.699219 "/>
<path style=" stroke:none;fill-rule:nonzero;fill:rgb(90.19928%,23.919678%,18.818665%);fill-opacity:1;" d="M 881.914062 305.394531 C 875.761719 305.394531 870.777344 300.40625 870.777344 294.257812 C 870.777344 288.097656 875.761719 283.113281 881.914062 283.113281 C 888.058594 283.113281 893.050781 288.097656 893.050781 294.257812 C 893.050781 300.40625 888.058594 305.394531 881.914062 305.394531 Z M 905.382812 294.257812 C 905.382812 281.28125 894.871094 270.769531 881.914062 270.769531 C 868.945312 270.769531 858.433594 281.28125 858.433594 294.257812 C 858.433594 298.789062 859.78125 302.988281 862.011719 306.578125 L 861.855469 306.582031 L 881.839844 338.046875 L 902.300781 306 L 902.128906 306 C 904.144531 302.53125 905.382812 298.554688 905.382812 294.257812 "/>
</g>
</svg>
