<?xml version="1.0" encoding="UTF-8"?>
<svg xmlns="http://www.w3.org/2000/svg" xmlns:xlink="http://www.w3.org/1999/xlink" width="1440pt" height="809.999993pt" viewBox="0 0 1440 809.999993" version="1.2">
<defs>
<clipPath id="clip1">
  <path d="M 524.34375 333 L 607 333 L 607 559 L 524.34375 559 Z M 524.34375 333 "/>
</clipPath>
<clipPath id="clip2">
  <path d="M 761 345 L 836.824219 345 L 836.824219 574 L 761 574 Z M 761 345 "/>
</clipPath>
<clipPath id="clip3">
  <path d="M 590 293 L 776 293 L 776 612.757812 L 590 612.757812 Z M 590 293 "/>
</clipPath>
<clipPath id="clip4">
  <path d="M 587 294 L 778 294 L 778 612.757812 L 587 612.757812 Z M 587 294 "/>
</clipPath>
<clipPath id="clip5">
  <path d="M 597 388 L 735 388 L 735 612.757812 L 597 612.757812 Z M 597 388 "/>
</clipPath>
<clipPath id="clip6">
  <path d="M 603 388 L 731 388 L 731 612.757812 L 603 612.757812 Z M 603 388 "/>
</clipPath>
</defs>
<g id="surface1">
<rect x="0" y="0" width="1440" height="809.999993" style="fill:rgb(100%,100%,100%);fill-opacity:1;stroke:none;"/>
<rect x="0" y="0" width="1440" height="809.999993" style="fill:rgb(100%,100%,100%);fill-opacity:1;stroke:none;"/>
<rect x="0" y="0" width="1440" height="809.999993" style="fill:rgb(100%,100%,100%);fill-opacity:1;stroke:none;"/>
<g clip-path="url(#clip1)" clip-rule="nonzero">
<path style=" stroke:none;fill-rule:evenodd;fill:rgb(9.01947%,43.528748%,75.289917%);fill-opacity:1;" d="M 600.199219 333 C 600.199219 333 562.558594 332.5625 558.488281 371.226562 C 543.734375 393.097656 566.355469 398.25 555.242188 421.566406 C 555.242188 421.566406 540.632812 431.023438 538.375 457.179688 C 536.414062 479.90625 537.746094 497.597656 533.667969 508.230469 C 531.789062 513.136719 531.695312 511.9375 531.644531 516.644531 C 531.59375 521.035156 530.449219 528.371094 524.820312 539.332031 C 524.492188 539.96875 524.859375 542.566406 526.339844 544.605469 C 526.96875 545.472656 527.515625 546.144531 527.859375 546.855469 C 529.660156 550.613281 530.070312 550.28125 533.332031 551.617188 C 535.859375 552.652344 539.328125 554.335938 543.460938 556.808594 C 547.648438 559.3125 548.523438 559.265625 551.3125 558.441406 C 554.105469 557.609375 557.484375 556.425781 560.335938 554.386719 C 560.335938 554.386719 564.800781 554.660156 565.625 553.914062 C 566.445312 553.164062 570.148438 546.765625 569.855469 544.652344 C 569.617188 542.960938 568.613281 541.484375 567.820312 538.050781 C 567.214844 535.421875 567.101562 534.875 565.605469 534.476562 C 565.605469 534.476562 568.417969 521.867188 560.378906 514.273438 C 560.378906 514.273438 559.660156 498.613281 578.800781 484.402344 C 587.589844 477.871094 592.5625 473.433594 595.125 467.578125 C 600.097656 456.226562 593.761719 442.234375 598.183594 434.757812 C 599.015625 433.355469 599.160156 432.535156 599.21875 429.816406 C 599.316406 425.445312 599.480469 423.292969 601.089844 418.992188 C 604.230469 410.601562 607.511719 396.308594 605.742188 386.378906 C 603.972656 376.445312 600.046875 364.636719 600.199219 333 "/>
</g>
<path style=" stroke:none;fill-rule:evenodd;fill:rgb(5.488586%,8.239746%,13.328552%);fill-opacity:1;" d="M 600.253906 340.984375 C 583.335938 338.4375 571.324219 349.511719 567.054688 363.460938 C 564.703125 371.152344 565.296875 379.578125 567.046875 387.457031 C 568.027344 391.863281 567.746094 392.328125 564.960938 388.53125 C 564.335938 387.675781 563.773438 386.953125 563.289062 386.183594 C 562.238281 384.507812 561.980469 384.5625 561.578125 386.355469 C 559.171875 397.03125 562.804688 407.890625 565.269531 417.59375 C 566.027344 420.574219 566.753906 424.382812 566.933594 427.800781 C 567.214844 433.046875 566.75 431.894531 565.714844 428.261719 C 564.753906 424.886719 562.835938 421.472656 559.144531 424.441406 C 556.550781 426.53125 546.632812 435.078125 544.378906 461.234375 C 542.808594 479.414062 542.144531 492.074219 539.65625 502.335938 C 538.617188 506.613281 537.203125 511 535.957031 515.925781 C 534.621094 521.21875 535.707031 526.832031 530.207031 537.765625 C 529.0625 540.035156 530.5 542.617188 531.324219 544.5 C 532.472656 547.117188 531.789062 547.054688 537.632812 549.433594 C 538.769531 549.898438 540.183594 550.574219 542.023438 551.613281 C 546.3125 554.039062 546.101562 555.457031 550.945312 554.410156 C 553.171875 553.933594 555.585938 553.121094 557.804688 550.898438 C 557.804688 550.898438 562.121094 551.570312 562.941406 550.820312 C 563.761719 550.070312 566.265625 546.316406 565.972656 544.203125 C 565.75 542.640625 564.328125 542.117188 563.28125 539.65625 C 562.140625 536.972656 563.445312 536.582031 560.707031 535.597656 C 560.707031 535.597656 563.824219 522.195312 555.785156 514.601562 C 555.785156 514.601562 554.949219 496.519531 574.179688 482.433594 C 588.585938 471.882812 591.769531 464.957031 591.949219 449.484375 C 592.023438 443.050781 592.363281 436.480469 593.847656 430.027344 C 594.28125 428.132812 589.289062 433.65625 581.542969 434.152344 C 580.492188 434.21875 584.886719 431.363281 588.464844 427.96875 C 595.699219 421.09375 596.863281 418.40625 600.570312 409.773438 C 603.785156 402.292969 607.003906 393.445312 605.742188 386.378906 C 603.972656 376.445312 605.199219 370.03125 600.253906 340.984375 "/>
<g clip-path="url(#clip2)" clip-rule="nonzero">
<path style=" stroke:none;fill-rule:evenodd;fill:rgb(9.01947%,43.528748%,75.289917%);fill-opacity:1;" d="M 770.609375 345.84375 C 770.609375 345.84375 808.230469 347.148438 810.511719 385.964844 C 824.238281 408.492188 801.40625 412.59375 811.429688 436.398438 C 811.429688 436.398438 825.585938 446.523438 826.632812 472.757812 C 827.542969 495.550781 825.398438 513.160156 828.976562 523.96875 C 830.628906 528.957031 830.777344 527.765625 830.609375 532.472656 C 830.457031 536.855469 831.265625 544.238281 836.378906 555.449219 C 836.679688 556.101562 836.191406 558.675781 834.621094 560.644531 C 833.949219 561.484375 833.371094 562.125 832.996094 562.824219 C 831.027344 566.492188 830.628906 566.140625 827.308594 567.324219 C 824.738281 568.242188 821.195312 569.765625 816.953125 572.042969 C 812.65625 574.351562 811.777344 574.261719 809.035156 573.308594 C 806.285156 572.351562 802.964844 571.007812 800.207031 568.839844 C 800.207031 568.839844 795.734375 568.910156 794.945312 568.121094 C 794.164062 567.332031 790.757812 560.773438 791.152344 558.675781 C 791.464844 556.996094 792.53125 555.570312 793.484375 552.175781 C 794.214844 549.578125 794.351562 549.039062 795.863281 548.707031 C 795.863281 548.707031 793.636719 535.984375 802.015625 528.769531 C 802.015625 528.769531 803.460938 513.160156 784.996094 498.074219 C 776.511719 491.144531 771.753906 486.480469 769.460938 480.511719 C 765.019531 468.941406 771.996094 455.261719 767.921875 447.585938 C 767.15625 446.148438 767.050781 445.320312 767.117188 442.601562 C 767.222656 438.230469 767.160156 436.074219 765.75 431.699219 C 763 423.175781 760.378906 408.742188 762.605469 398.90625 C 764.832031 389.070312 769.300781 377.457031 770.609375 345.84375 "/>
</g>
<path style=" stroke:none;fill-rule:evenodd;fill:rgb(5.488586%,8.239746%,13.328552%);fill-opacity:1;" d="M 770.1875 353.820312 C 787.203125 352.058594 798.6875 363.671875 802.3125 377.808594 C 804.304688 385.597656 803.320312 393.988281 801.210938 401.78125 C 800.027344 406.136719 800.289062 406.613281 803.246094 402.949219 C 803.910156 402.121094 804.507812 401.425781 805.023438 400.679688 C 806.152344 399.054688 806.402344 399.125 806.726562 400.929688 C 808.636719 411.710938 804.507812 422.386719 801.59375 431.964844 C 800.699219 434.90625 799.800781 438.679688 799.460938 442.082031 C 798.9375 447.3125 799.453125 446.183594 800.652344 442.601562 C 801.769531 439.273438 803.847656 435.953125 807.398438 439.09375 C 809.894531 441.296875 819.402344 450.292969 820.449219 476.527344 C 821.175781 494.761719 821.253906 507.433594 823.269531 517.800781 C 824.105469 522.128906 825.320312 526.574219 826.332031 531.554688 C 827.425781 536.898438 826.082031 542.460938 831.070312 553.632812 C 832.109375 555.953125 830.554688 558.464844 829.644531 560.308594 C 828.375 562.871094 829.058594 562.835938 823.113281 564.945312 C 821.957031 565.355469 820.515625 565.96875 818.628906 566.921875 C 814.234375 569.144531 814.375 570.570312 809.585938 569.300781 C 807.386719 568.71875 805.011719 567.800781 802.898438 565.472656 C 802.898438 565.472656 798.554688 565.945312 797.769531 565.15625 C 796.984375 564.371094 794.65625 560.507812 795.046875 558.410156 C 795.339844 556.855469 796.789062 556.402344 797.945312 553.992188 C 799.210938 551.359375 797.925781 550.910156 800.703125 550.054688 C 800.703125 550.054688 798.207031 536.523438 806.585938 529.308594 C 806.585938 529.308594 808.261719 511.285156 789.699219 496.324219 C 775.796875 485.117188 772.9375 478.046875 773.472656 462.582031 C 773.691406 456.15625 773.65625 449.578125 772.476562 443.0625 C 772.128906 441.148438 776.859375 446.898438 784.574219 447.753906 C 785.621094 447.867188 781.359375 444.808594 777.949219 441.253906 C 771.039062 434.054688 769.996094 431.3125 766.691406 422.519531 C 763.824219 414.894531 761.019531 405.910156 762.605469 398.90625 C 764.832031 389.070312 763.902344 382.605469 770.1875 353.820312 "/>
<g clip-path="url(#clip3)" clip-rule="nonzero">
<path style=" stroke:none;fill-rule:evenodd;fill:rgb(9.01947%,43.528748%,75.289917%);fill-opacity:1;" d="M 661.136719 293.703125 C 661.136719 293.703125 651.707031 301.050781 644.242188 303.28125 C 636.78125 305.511719 618.84375 310.363281 598.289062 334.5 C 577.730469 358.636719 603.785156 405.074219 603.785156 405.074219 C 603.785156 405.074219 609.511719 416.078125 618.601562 426.503906 C 628.761719 438.15625 633.933594 442.886719 636.8125 451.066406 C 638.214844 455.0625 642.640625 470.484375 636.078125 494.324219 C 633.953125 502.039062 630.996094 511.175781 627.984375 517.710938 C 621.535156 531.714844 610.242188 544.90625 609.167969 612.777344 L 672.339844 612.777344 C 672.339844 612.777344 691.84375 576.710938 688.984375 541.78125 C 691.628906 541.96875 694.769531 542.03125 697.941406 541.734375 C 695.0625 576.679688 714.582031 612.777344 714.582031 612.777344 L 775.066406 612.777344 C 775.199219 557.972656 762.703125 531.714844 756.25 517.710938 C 753.4375 511.605469 750.636719 507.160156 746.992188 496.179688 C 741.917969 480.886719 743.269531 464.347656 745.1875 454.664062 C 747.300781 443.953125 761.996094 438.308594 766.898438 419.042969 C 767.648438 416.097656 768.265625 412.761719 769.023438 409.007812 C 774.773438 380.507812 774.128906 346.308594 774.128906 346.308594 C 774.128906 346.308594 759.464844 341.980469 754.355469 336.46875 C 749.25 330.960938 747.023438 320.464844 725.160156 310.886719 C 725.160156 310.886719 691.773438 293.96875 661.136719 293.703125 "/>
</g>
<g clip-path="url(#clip4)" clip-rule="nonzero">
<path style=" stroke:none;fill-rule:evenodd;fill:rgb(5.488586%,8.239746%,13.328552%);fill-opacity:1;" d="M 666.78125 294.511719 C 661.941406 301.246094 653.589844 305.363281 646.125 307.59375 C 640.867188 309.164062 632.136719 312.171875 620.246094 322.261719 C 615.789062 326.046875 606.992188 339.824219 594.234375 340.644531 C 588.128906 348.574219 586.398438 363.105469 587.710938 370.953125 C 597.050781 396.140625 617.253906 414.410156 624.515625 422.734375 C 634.675781 434.386719 639.308594 439.113281 642.183594 447.296875 C 643.589844 451.289062 650.167969 471.832031 643.605469 495.671875 C 641.480469 503.386719 638.65625 512.386719 635.644531 518.921875 C 629.195312 532.925781 616.398438 550.160156 616.261719 612.777344 L 664.007812 612.777344 C 673.144531 596.621094 685.125 568.363281 682.261719 533.433594 C 689.347656 537.796875 697.320312 538.128906 704.261719 534.867188 C 700.707031 575.46875 723.453125 612.777344 723.453125 612.777344 L 767.539062 612.777344 C 768.863281 584.054688 764.925781 562.296875 759.050781 544.324219 C 753.882812 528.519531 747.335938 516.253906 739.871094 496.316406 C 734.785156 482.738281 738.972656 460.578125 740.882812 450.890625 C 741.628906 447.128906 745.082031 442.21875 749.058594 438.066406 C 752.675781 434.292969 755.8125 430.351562 758.558594 426.300781 C 764.273438 417.863281 767.488281 408.914062 770.230469 399.851562 C 778.652344 372.027344 780.308594 355.800781 774.125 353.648438 C 767.941406 351.492188 755.96875 351.132812 749.519531 342.933594 C 743.066406 334.730469 742.1875 320.195312 720.320312 310.621094 C 720.320312 310.621094 697.417969 294.777344 666.78125 294.511719 "/>
</g>
<path style=" stroke:none;fill-rule:evenodd;fill:rgb(9.01947%,43.528748%,75.289917%);fill-opacity:1;" d="M 676.507812 272.523438 C 676.507812 272.523438 667.027344 287.933594 654.980469 300.132812 C 654.980469 300.132812 673.441406 331.613281 695.832031 348.011719 C 695.832031 348.011719 709.96875 342.191406 716.191406 334.25 C 716.191406 334.25 717.433594 320.722656 717.433594 307.785156 C 717.433594 294.851562 707.355469 256.320312 707.355469 256.320312 L 689.808594 263.667969 L 676.507812 272.523438 "/>
<path style=" stroke:none;fill-rule:evenodd;fill:rgb(5.488586%,8.239746%,13.328552%);fill-opacity:1;" d="M 683.316406 272.628906 C 666 295.535156 665.539062 297.738281 656.703125 303.167969 C 661.785156 315.558594 676.417969 340.507812 694.753906 353.9375 C 700.671875 352.320312 711.582031 344.347656 716.191406 334.25 C 714.957031 327.257812 713.503906 318.183594 713.300781 305.246094 C 713.097656 292.308594 707.355469 256.320312 707.355469 256.320312 L 689.808594 263.667969 L 683.316406 272.628906 "/>
<path style=" stroke:none;fill-rule:evenodd;fill:rgb(9.01947%,43.528748%,75.289917%);fill-opacity:1;" d="M 690.070312 286.621094 C 690.070312 286.621094 693.605469 293.96875 707.613281 304.332031 C 721.625 314.695312 723.589844 314.5625 723.589844 314.5625 C 723.589844 314.5625 728.300781 313.511719 732.621094 310.496094 C 732.621094 310.496094 731.972656 304.570312 732.167969 303.515625 C 732.363281 302.464844 734.199219 300.1875 734.722656 299.511719 C 734.65625 299.167969 734.507812 298.789062 733.90625 298.332031 C 734.429688 297.050781 735.050781 295.640625 736.230469 293.734375 C 736.230469 293.734375 738.097656 294.621094 740.519531 295.214844 C 741.394531 294.671875 742.214844 293.277344 742.382812 291.761719 C 742.199219 287.941406 742.3125 286.839844 742.515625 285.589844 C 742.449219 284.34375 741.335938 278.566406 741.335938 278.566406 C 741.335938 278.566406 744.023438 278.304688 745.855469 276.53125 C 745.855469 276.53125 744.609375 273.246094 745.265625 269.632812 C 745.921875 266.023438 745.726562 263.59375 745.332031 261.5625 C 749.496094 260.816406 752.6875 259.128906 754.351562 254.347656 C 730.722656 231.015625 721.820312 245.648438 692.8125 241.859375 C 692.8125 241.859375 681.875 263.660156 676.507812 272.523438 C 676.507812 272.523438 680.140625 272.738281 684.324219 272.601562 C 691.546875 272.371094 690.242188 276.414062 690.070312 286.621094 "/>
<path style=" stroke:none;fill-rule:evenodd;fill:rgb(5.488586%,8.239746%,13.328552%);fill-opacity:1;" d="M 690.070312 286.621094 C 693.5625 290.695312 710.476562 303.808594 719.53125 308.625 C 722.410156 310.152344 723.308594 309.6875 722.609375 306.6875 C 720.390625 297.140625 728.117188 283.4375 725.734375 279.207031 C 722.191406 272.914062 722.851562 271.484375 724.523438 270.011719 C 726.835938 267.96875 729.867188 267.011719 728.734375 263.710938 C 724.945312 252.691406 736.464844 256.03125 742.441406 258.933594 C 746.945312 259 749.058594 258.253906 751.527344 254.414062 C 729.445312 232.832031 722.625 249.148438 693.617188 245.359375 C 691.296875 254.542969 687.664062 264.117188 683.316406 272.628906 C 683.992188 277.460938 685.949219 282.230469 690.070312 286.621094 "/>
<path style=" stroke:none;fill-rule:evenodd;fill:rgb(9.01947%,43.528748%,75.289917%);fill-opacity:1;" d="M 701.136719 274.621094 C 699.285156 275.828125 697.34375 275.257812 696.570312 273.972656 C 695.757812 272.621094 695.832031 270.457031 696.1875 268.949219 C 696.90625 265.898438 699.011719 262.929688 701.960938 262.890625 C 703.878906 262.867188 704.78125 264.585938 704.800781 265.578125 C 702.339844 262.125 699.074219 265.472656 698.21875 269.050781 C 697.558594 271.816406 697.976562 274.484375 701.136719 274.621094 "/>
<path style=" stroke:none;fill-rule:evenodd;fill:rgb(93.728638%,18.429565%,41.958618%);fill-opacity:1;" d="M 661.425781 315.59375 C 661.425781 315.59375 667.074219 314.246094 671.640625 317.882812 C 676.210938 321.515625 680.242188 326.363281 675.808594 351.007812 C 673.75 362.433594 672.007812 370.730469 672.867188 377.09375 C 673.484375 381.664062 675.519531 389.136719 671.441406 394.171875 C 666.023438 400.851562 646.503906 400.289062 639.519531 400.15625 L 639.921875 361.238281 L 647.445312 324.074219 L 661.425781 315.59375 "/>
<path style=" stroke:none;fill-rule:evenodd;fill:rgb(33.329773%,1.179504%,9.799194%);fill-opacity:1;" d="M 665.164062 396.917969 C 655.796875 396.863281 644.585938 396.546875 639.316406 395.78125 L 639.921875 361.238281 L 647.445312 324.074219 L 661.425781 315.59375 L 663.878906 316.910156 C 678.769531 317.574219 677.195312 336.222656 674.058594 355.179688 C 672.992188 361.652344 672.859375 365.675781 672.265625 370.527344 C 671.351562 378.078125 675.382812 393.292969 665.164062 396.917969 "/>
<path style=" stroke:none;fill-rule:evenodd;fill:rgb(93.728638%,18.429565%,41.958618%);fill-opacity:1;" d="M 663.953125 390.851562 C 665.910156 389.898438 668.9375 391.039062 670.953125 391.539062 C 675.355469 392.632812 681.589844 400.800781 686.417969 410.28125 C 701.230469 430.707031 707.089844 433.089844 715.589844 451.480469 C 710.738281 463.773438 692.777344 481.148438 684.945312 492.722656 C 683.742188 494.5 682.726562 498.742188 681.9375 500.539062 C 680.867188 502.964844 680.273438 504.539062 677.308594 505.820312 C 675.585938 506.5625 673.3125 504.761719 671.515625 504.296875 C 670.003906 503.90625 668.875 503.03125 667.828125 501.253906 C 667.289062 500.34375 666.75 499.0625 665.875 496.992188 C 664.84375 494.539062 663.40625 491.300781 664.925781 490.015625 C 668.492188 487 670.191406 484.371094 670.925781 484.042969 C 671.421875 483.820312 671.933594 483.804688 673.074219 484.402344 C 674.847656 485.320312 676.613281 485.882812 678.75 486.242188 C 687.527344 478.425781 693.289062 457.566406 698.542969 451.449219 C 689.003906 441.328125 677.996094 429.769531 667.996094 419.335938 C 661.527344 412.585938 657.199219 392.96875 663.953125 390.851562 "/>
<path style=" stroke:none;fill-rule:evenodd;fill:rgb(33.329773%,1.179504%,9.799194%);fill-opacity:1;" d="M 667.996094 419.335938 C 662.742188 411.878906 661.113281 399.820312 666.773438 398.824219 C 678.621094 396.742188 680.71875 406.882812 684.972656 413.175781 C 687.027344 416.222656 689.976562 419.460938 692.308594 422.472656 C 702.226562 435.289062 712.574219 448.414062 711.613281 451.804688 C 711.195312 453.28125 709.359375 456.78125 707.097656 460.257812 C 701.246094 469.28125 689.695312 481.320312 682.535156 491.28125 C 678.839844 496.421875 678.523438 501.546875 677.941406 501.882812 C 674.292969 503.988281 668.847656 501.558594 668.753906 492.914062 C 668.75 492.21875 670.507812 488.515625 673.167969 488.308594 C 675.269531 488.140625 678.335938 491.472656 678.71875 491.050781 C 691.945312 476.449219 696.367188 458.457031 700.835938 452.445312 C 701.320312 451.789062 703.347656 450.535156 706.113281 450.382812 C 704.464844 448.949219 701.851562 450.136719 701.082031 449.527344 C 694.148438 444.042969 686.214844 433.777344 680.804688 427.703125 C 676.660156 423.046875 667.304688 418.617188 667.996094 419.335938 "/>
<g clip-path="url(#clip5)" clip-rule="nonzero">
<path style=" stroke:none;fill-rule:evenodd;fill:rgb(93.728638%,18.429565%,41.958618%);fill-opacity:1;" d="M 618.394531 395.824219 C 608.390625 399.933594 614.363281 427.128906 618.933594 438.980469 C 623.503906 450.832031 633.984375 458.910156 636.945312 467.796875 C 639.902344 476.6875 637.683594 483.214844 631.367188 491.429688 C 625.046875 499.644531 591.378906 525.96875 598.769531 592.085938 L 601.484375 612.777344 L 631.089844 612.777344 C 631.578125 611.273438 638.96875 588.449219 642.140625 568.054688 C 643.277344 560.742188 643.84375 557.300781 646.6875 550.007812 C 646.6875 550.007812 650.25 553.4375 654.820312 555.796875 C 654.820312 555.796875 668.984375 586.546875 695.597656 612.777344 L 734.847656 612.777344 C 728.15625 586.707031 721.480469 570.96875 686.136719 526.710938 C 686.136719 526.710938 685.363281 499.074219 680.390625 489.375 C 680.390625 489.375 677.5 480.285156 680.457031 472.207031 C 683.414062 464.128906 685.296875 459.816406 685.296875 452.683594 C 696.605469 445.621094 697.90625 430.554688 688.117188 421.578125 C 683.347656 417.199219 679.382812 414.035156 678.84375 407.03125 C 678.308594 400.03125 676.492188 394.78125 672.257812 392.019531 C 666.917969 389.660156 660.515625 390.191406 657.289062 388.710938 C 655.457031 388.550781 653.488281 388.46875 651.425781 388.492188 C 640.773438 388.617188 628.398438 391.710938 618.394531 395.824219 "/>
</g>
<g clip-path="url(#clip6)" clip-rule="nonzero">
<path style=" stroke:none;fill-rule:evenodd;fill:rgb(33.329773%,1.179504%,9.799194%);fill-opacity:1;" d="M 605.992188 612.777344 L 625.160156 612.777344 C 631.019531 597.835938 635.632812 582.253906 638.507812 566.46875 C 640.632812 554.796875 641.59375 553.78125 643.28125 546.800781 C 643.714844 544.996094 644.019531 543.074219 644.058594 540.957031 C 644.132812 536.871094 643.941406 533.65625 643.390625 530.214844 C 643.011719 527.835938 643.054688 527.308594 644.667969 529.652344 C 646.054688 531.664062 647.25 534.097656 648.449219 537.28125 C 649.410156 539.832031 651.722656 539.890625 653.6875 538.300781 C 655.304688 536.988281 655.9375 536.597656 656.984375 535.699219 C 659.875 533.21875 660.632812 533.070312 657.976562 536.425781 C 656.519531 538.257812 655.480469 539.941406 653.4375 542.191406 C 651.855469 543.9375 651.214844 545.441406 653.78125 547.363281 C 657.890625 550.441406 657.535156 551.046875 661.210938 557.757812 C 674.269531 581.625 684.617188 594.25 701.605469 612.777344 L 730.757812 612.777344 C 712.585938 560.121094 682.546875 537.679688 680.773438 527.183594 C 679.714844 520.894531 681.015625 505.132812 675.429688 488.488281 C 674.253906 484.984375 673.15625 478.855469 674.902344 473.910156 C 677.519531 466.507812 682.246094 462.433594 681.566406 454.566406 C 681.503906 453.828125 679.269531 454.378906 675.976562 453.835938 C 672.433594 453.25 673.199219 452.796875 675.6875 452.339844 C 684.992188 450.628906 692.976562 443.226562 692.519531 434.671875 C 692.296875 430.457031 690.222656 427.335938 687.144531 424.242188 C 684.421875 421.5 681.234375 419.515625 678.941406 415.894531 C 676.554688 412.128906 676.84375 408.769531 676.632812 405.964844 C 675.816406 395.230469 668.339844 391.117188 660.320312 390.335938 C 657.625 390.074219 655.84375 389.371094 654.71875 388.542969 C 653.65625 388.496094 652.554688 388.476562 651.425781 388.492188 C 641.546875 388.609375 630.191406 391.277344 620.613281 394.941406 C 620.199219 396.429688 618.363281 414.902344 625 437.050781 C 627.523438 445.476562 630.84375 450.574219 633.929688 454.375 C 639.289062 460.984375 642.875 467.121094 643.496094 473.496094 C 644.121094 479.933594 641.722656 486.613281 635.082031 494.269531 C 619.054688 512.734375 610.527344 528.195312 605.671875 551.203125 C 601.503906 570.976562 605.214844 592.789062 605.992188 612.777344 "/>
</g>
<path style=" stroke:none;fill-rule:evenodd;fill:rgb(93.728638%,18.429565%,41.958618%);fill-opacity:1;" d="M 653.753906 378.046875 C 652.457031 378.25 652.957031 381.726562 653.164062 382.550781 C 653.550781 384.105469 654.253906 385.664062 654.988281 386.636719 C 656.117188 388.136719 657.734375 389.113281 660.320312 390.335938 C 661.71875 392.050781 651.621094 398.195312 632.53125 395.207031 C 629.257812 394.695312 626.691406 393.671875 628.960938 392.65625 C 631.339844 391.589844 634.761719 389.277344 634.585938 385.488281 C 633.503906 362.53125 651.375 364.609375 653.753906 378.046875 "/>
<path style=" stroke:none;fill-rule:evenodd;fill:rgb(33.329773%,1.179504%,9.799194%);fill-opacity:1;" d="M 651.472656 376.953125 C 650.925781 379.363281 651.96875 383.777344 652.640625 385.234375 C 653.863281 387.890625 655.910156 389.511719 660.320312 390.335938 C 664.808594 392.453125 648.730469 403.582031 630.984375 395.949219 C 627.941406 394.640625 626.691406 393.671875 628.960938 392.65625 C 631.339844 391.589844 634.789062 389.277344 634.585938 385.488281 C 633.394531 363.628906 647.917969 368.203125 651.472656 376.953125 "/>
<path style=" stroke:none;fill-rule:evenodd;fill:rgb(93.728638%,18.429565%,41.958618%);fill-opacity:1;" d="M 669.148438 322.792969 C 670.757812 324.609375 675.296875 331.476562 674.019531 338.949219 C 672.382812 348.53125 673.796875 349.769531 674.609375 351.15625 C 675.75 353.105469 676.601562 354.226562 679.949219 356.136719 C 680.351562 356.367188 680.722656 356.640625 680.65625 357.785156 C 680.59375 358.933594 679.511719 360.285156 678.3125 361.128906 C 677.113281 361.96875 676.925781 362.785156 677.210938 363.492188 C 677.5 364.199219 678.21875 364.773438 679.160156 365.042969 C 680.597656 367.695312 677.753906 368.777344 676.582031 369.675781 C 678.089844 369.339844 679.347656 372.054688 676.355469 373.222656 C 675.886719 373.964844 676.25 375.40625 676.339844 376.542969 C 676.625 380 670.800781 380.445312 668.335938 380.675781 C 664.78125 381.011719 659.59375 380.765625 654.429688 378.542969 C 646.21875 375 644.125 371.480469 643.734375 368.890625 C 643.515625 367.476562 644.148438 365.839844 644.316406 364.636719 C 621.683594 363.625 619.734375 343.28125 622.726562 333.984375 C 625.882812 324.171875 635.324219 317.585938 647.320312 316.128906 C 657.304688 314.917969 664.042969 317.039062 669.148438 322.792969 "/>
<path style=" stroke:none;fill-rule:evenodd;fill:rgb(33.329773%,1.179504%,9.799194%);fill-opacity:1;" d="M 669.113281 322.589844 C 673.386719 327.40625 672.566406 334.847656 671.105469 340.660156 C 669.96875 345.214844 669.703125 346.007812 669.5 347.015625 C 668.894531 349.976562 669.570312 351.546875 670.273438 352.972656 C 673.027344 358.566406 669.398438 361.21875 670.070312 370.78125 C 670.328125 374.433594 671.984375 377.117188 669.59375 378.394531 C 666.464844 380.066406 653.28125 378.050781 648.9375 375.632812 C 645 373.445312 644.015625 370.765625 643.734375 368.890625 C 643.515625 367.476562 644.148438 365.839844 644.316406 364.636719 C 623.097656 362.753906 619.734375 343.28125 622.726562 333.984375 C 625.882812 324.171875 635.324219 317.585938 647.320312 316.128906 C 657.304688 314.917969 664.011719 316.835938 669.113281 322.589844 "/>
<path style=" stroke:none;fill-rule:evenodd;fill:rgb(93.728638%,18.429565%,41.958618%);fill-opacity:1;" d="M 627.414062 396.644531 C 624.402344 395.691406 620.832031 394.945312 617.910156 395.445312 C 611.535156 396.539062 606.453125 401.070312 600.484375 410.546875 C 600.484375 410.546875 590.988281 416.570312 583.035156 422.625 C 575.085938 428.671875 566.835938 437.003906 561.0625 454.980469 C 561.0625 454.980469 564.96875 460.511719 575.085938 467.832031 C 583.492188 473.914062 599.429688 481.105469 610.4375 489.222656 C 612.671875 490.871094 614.414062 494.835938 615.804688 496.632812 C 617.683594 499.0625 618.761719 500.632812 623.300781 501.914062 C 625.945312 502.660156 629.085938 500.855469 631.683594 500.390625 C 633.871094 500 634.996094 499.160156 636.324219 497.382812 C 637.007812 496.472656 637.644531 495.191406 638.679688 493.117188 C 639.90625 490.667969 641.628906 487.429688 639.222656 486.144531 C 633.574219 483.128906 631.167969 480.464844 630.042969 480.136719 C 629.28125 479.914062 628.523438 479.898438 626.90625 480.496094 C 624.402344 481.414062 621.863281 481.980469 618.742188 482.339844 C 618.742188 482.339844 610.492188 476.414062 598.914062 462.96875 C 587.339844 449.523438 587.570312 447.8125 587.570312 447.8125 C 587.570312 447.8125 591.277344 442.355469 605.394531 435.023438 C 613.960938 430.578125 618.503906 424.917969 623.105469 421.355469 C 626.09375 419.046875 630.191406 416.539062 632.039062 414.707031 C 637.339844 409.441406 635.234375 399.121094 627.414062 396.644531 "/>
<path style=" stroke:none;fill-rule:evenodd;fill:rgb(33.329773%,1.179504%,9.799194%);fill-opacity:1;" d="M 627.414062 396.644531 C 615.476562 395.242188 606.066406 406.84375 600.589844 416.753906 C 599.222656 419.222656 599.3125 418.507812 599.570312 416.203125 C 599.746094 414.660156 599.738281 414.933594 598.324219 415.816406 C 590.191406 420.902344 571.691406 435.542969 565.824219 454.425781 C 565.726562 454.746094 569.003906 459.144531 574.054688 462.746094 C 585.691406 471.046875 603.363281 480.808594 613.191406 488.148438 C 614.820312 489.367188 616.324219 494.492188 620.078125 497.707031 C 621.628906 499.035156 622.703125 500.585938 626.476562 500.167969 C 629.714844 499.808594 633.804688 500.214844 635.847656 498.722656 C 636.929688 497.929688 638.070312 496.757812 638.894531 495.390625 C 640.203125 493.21875 640.390625 490.597656 639.832031 489.253906 C 639.316406 488.019531 637.210938 486.972656 635.578125 486.152344 C 633.113281 484.917969 632.734375 484.414062 630.242188 482.628906 C 629.035156 481.765625 626.910156 483.101562 623.894531 483.839844 C 621.578125 484.40625 617.675781 484.855469 617.328125 484.582031 C 591.183594 463.734375 588.042969 448.644531 578.695312 443.472656 C 580.496094 443.152344 584.011719 443.847656 585.546875 445.355469 C 589.480469 441.765625 593.417969 439.058594 597.546875 436.699219 C 606.367188 431.652344 611.65625 427.992188 619.660156 422.109375 C 621.664062 420.632812 624.265625 419.511719 627.109375 418.480469 C 642.449219 413.59375 641.589844 397.324219 627.414062 396.644531 "/>
<path style=" stroke:none;fill-rule:evenodd;fill:rgb(93.728638%,18.429565%,41.958618%);fill-opacity:1;" d="M 665.976562 319.25 C 664.800781 316.566406 662.824219 314.101562 659.523438 313.4375 C 651.457031 311.820312 635.464844 314.648438 627.535156 320.171875 C 619.605469 325.691406 615.035156 331.886719 615.4375 350.199219 C 615.789062 366.152344 615.863281 383.449219 614.285156 396.5 C 620.238281 395.109375 627.183594 394.449219 633.167969 394.050781 C 641.140625 393.523438 647.609375 390.90625 648.4375 384.335938 C 649.957031 372.226562 643.132812 366.554688 649.308594 352.757812 C 652.757812 345.046875 655.808594 323.144531 661.484375 321.703125 C 667.128906 320.269531 667.128906 326.472656 665.976562 319.25 "/>
<path style=" stroke:none;fill-rule:evenodd;fill:rgb(33.329773%,1.179504%,9.799194%);fill-opacity:1;" d="M 667.722656 327.441406 C 667.722656 327.441406 667.671875 323.042969 665.929688 319.144531 C 663.402344 317.019531 661.042969 315.710938 656.921875 315.59375 C 648.191406 315.34375 635.296875 318.632812 627.929688 324.078125 C 622.484375 328.101562 621.621094 333.789062 621.152344 337.667969 C 618.453125 360.003906 622.882812 369.300781 621.0625 395.25 C 624.707031 395.222656 629.371094 394.933594 633.167969 394.050781 C 641.140625 393.523438 647.609375 390.90625 648.4375 384.335938 C 649.957031 372.226562 643.132812 366.554688 649.308594 352.757812 C 653.851562 342.613281 659.746094 311.640625 667.722656 327.441406 "/>
<path style=" stroke:none;fill-rule:evenodd;fill:rgb(93.728638%,18.429565%,41.958618%);fill-opacity:1;" d="M 662.75 319.566406 C 656.914062 320.875 654.839844 335.402344 651.332031 344.367188 C 648.777344 350.886719 643.691406 356.367188 644.347656 363.265625 C 646.46875 385.445312 645.609375 388.210938 633.167969 394.050781 C 641.140625 393.523438 647.609375 390.90625 648.4375 384.335938 C 649.957031 372.226562 643.234375 365.070312 650.117188 351.613281 C 658.058594 336.078125 658.992188 317.230469 666.242188 322.324219 C 666.097656 320.582031 664.289062 319.21875 662.75 319.566406 "/>
<path style=" stroke:none;fill-rule:evenodd;fill:rgb(93.728638%,18.429565%,41.958618%);fill-opacity:1;" d="M 643.1875 452.328125 C 647.988281 456.480469 657.765625 457.953125 663.5 454.9375 C 668.597656 452.257812 670.714844 446.683594 670.828125 442.21875 C 671.027344 434.554688 668.378906 429.257812 662.226562 422.152344 C 657.886719 417.144531 663.671875 428.804688 665.027344 432.183594 C 667.117188 437.367188 667.050781 442.476562 664.480469 447.15625 C 660.882812 453.707031 652.417969 453.566406 645.394531 451.023438 C 643 450.15625 637.855469 447.726562 643.1875 452.328125 "/>
</g>
</svg>
