<?xml version="1.0" encoding="UTF-8"?>
<svg xmlns="http://www.w3.org/2000/svg" xmlns:xlink="http://www.w3.org/1999/xlink" width="1440pt" height="809.999993pt" viewBox="0 0 1440 809.999993" version="1.2">
<defs>
<clipPath id="clip1">
  <path d="M 532.949219 214.132812 L 907 214.132812 L 907 590 L 532.949219 590 Z M 532.949219 214.132812 "/>
</clipPath>
</defs>
<g id="surface1">
<rect x="0" y="0" width="1440" height="809.999993" style="fill:rgb(100%,100%,100%);fill-opacity:1;stroke:none;"/>
<rect x="0" y="0" width="1440" height="809.999993" style="fill:rgb(100%,100%,100%);fill-opacity:1;stroke:none;"/>
<rect x="0" y="0" width="1440" height="809.999993" style="fill:rgb(100%,100%,100%);fill-opacity:1;stroke:none;"/>
<path style=" stroke:none;fill-rule:nonzero;fill:rgb(98.039246%,90.589905%,82.749939%);fill-opacity:1;" d="M 539.210938 520.765625 L 802.167969 520.765625 L 802.167969 232.960938 L 539.210938 232.960938 L 539.210938 520.765625 "/>
<path style=" stroke:none;fill-rule:nonzero;fill:rgb(47.059631%,50.19989%,52.549744%);fill-opacity:1;" d="M 626.863281 257.988281 L 714.515625 257.988281 C 728.34375 257.988281 739.558594 246.78125 739.558594 232.960938 L 739.558594 220.449219 L 601.820312 220.449219 L 601.820312 232.960938 C 601.820312 246.78125 613.03125 257.988281 626.863281 257.988281 "/>
<path style=" stroke:none;fill-rule:nonzero;fill:rgb(65.879822%,74.899292%,35.688782%);fill-opacity:1;" d="M 777.125 439.429688 C 777.125 439.429688 777.125 401.890625 727.035156 401.890625 C 727.035156 401.890625 720.777344 439.429688 777.125 439.429688 "/>
<path style=" stroke:none;fill-rule:nonzero;fill:rgb(91.758728%,18.429565%,22.349548%);fill-opacity:1;" d="M 708.253906 500.234375 C 708.253906 559.226562 745.820312 595.84375 777.125 577.074219 C 808.429688 595.84375 845.992188 559.226562 845.992188 500.234375 C 845.992188 431.414062 777.125 464.457031 777.125 464.457031 C 777.125 464.457031 708.253906 431.414062 708.253906 500.234375 "/>
<path style=" stroke:none;fill-rule:nonzero;fill:rgb(96.078491%,49.409485%,12.159729%);fill-opacity:1;" d="M 900.558594 422.324219 L 891.375 559.96875 C 890.503906 573.113281 879.574219 583.332031 866.386719 583.332031 L 863.164062 583.332031 C 849.976562 583.332031 839.050781 573.113281 838.175781 559.96875 L 835.148438 514.507812 L 834.308594 502.011719 L 832.644531 476.96875 L 831.804688 464.46875 L 830.136719 439.429688 L 829.300781 426.929688 L 828.996094 422.324219 C 828.023438 407.878906 839.492188 395.632812 853.976562 395.632812 L 875.578125 395.632812 C 890.0625 395.632812 901.527344 407.878906 900.558594 422.324219 "/>
<path style=" stroke:none;fill-rule:nonzero;fill:rgb(65.879822%,74.899292%,35.688782%);fill-opacity:1;" d="M 896.082031 339.324219 C 896.082031 356.597656 882.066406 370.605469 864.777344 370.605469 C 847.488281 370.605469 833.472656 356.597656 833.472656 339.324219 C 833.472656 331.121094 836.640625 323.640625 841.824219 318.066406 C 840.476562 315 839.734375 311.605469 839.734375 308.039062 C 839.734375 294.21875 850.945312 283.015625 864.777344 283.015625 C 878.605469 283.015625 889.820312 294.21875 889.820312 308.039062 C 889.820312 311.605469 889.078125 315 887.730469 318.066406 C 892.910156 323.640625 896.082031 331.121094 896.082031 339.324219 "/>
<path style=" stroke:none;fill-rule:nonzero;fill:rgb(91.758728%,18.429565%,22.349548%);fill-opacity:1;" d="M 614.339844 308.039062 C 614.339844 321.863281 603.125 333.066406 589.296875 333.066406 C 575.464844 333.066406 564.253906 321.863281 564.253906 308.039062 C 564.253906 294.21875 575.464844 283.015625 589.296875 283.015625 C 603.125 283.015625 614.339844 294.21875 614.339844 308.039062 "/>
<path style=" stroke:none;fill-rule:nonzero;fill:rgb(91.758728%,18.429565%,22.349548%);fill-opacity:1;" d="M 615.121094 383.121094 C 615.121094 396.941406 603.910156 408.144531 590.078125 408.144531 C 576.25 408.144531 565.035156 396.941406 565.035156 383.121094 C 565.035156 369.300781 576.25 358.09375 590.078125 358.09375 C 603.910156 358.09375 615.121094 369.300781 615.121094 383.121094 "/>
<path style=" stroke:none;fill-rule:nonzero;fill:rgb(91.758728%,18.429565%,22.349548%);fill-opacity:1;" d="M 614.339844 458.199219 C 614.339844 472.019531 603.125 483.226562 589.296875 483.226562 C 575.464844 483.226562 564.253906 472.019531 564.253906 458.199219 C 564.253906 444.378906 575.464844 433.171875 589.296875 433.171875 C 603.125 433.171875 614.339844 444.378906 614.339844 458.199219 "/>
<g clip-path="url(#clip1)" clip-rule="nonzero">
<path style=" stroke:none;fill-rule:nonzero;fill:rgb(6.269836%,5.879211%,5.099487%);fill-opacity:1;" d="M 894.3125 421.910156 L 885.128906 559.554688 C 884.476562 569.378906 876.242188 577.074219 866.390625 577.074219 L 863.164062 577.074219 C 853.308594 577.074219 845.078125 569.378906 844.421875 559.554688 L 841.417969 514.507812 L 861.492188 514.507812 C 864.949219 514.507812 867.75 511.710938 867.75 508.25 C 867.75 504.792969 864.949219 501.996094 861.492188 501.996094 L 840.582031 501.996094 L 838.910156 476.96875 L 859.539062 476.96875 C 863 476.96875 865.800781 474.171875 865.800781 470.710938 C 865.800781 467.253906 863 464.457031 859.539062 464.457031 L 838.078125 464.457031 L 836.40625 439.429688 L 859.539062 439.429688 C 863 439.429688 865.800781 436.628906 865.800781 433.171875 C 865.800781 429.714844 863 426.914062 859.539062 426.914062 L 835.574219 426.914062 L 835.238281 421.910156 C 834.890625 416.667969 836.671875 411.671875 840.265625 407.835938 C 843.855469 404 848.722656 401.890625 853.980469 401.890625 L 875.574219 401.890625 C 880.828125 401.890625 885.699219 404 889.289062 407.835938 C 892.878906 411.671875 894.664062 416.667969 894.3125 421.910156 Z M 802.464844 574.441406 C 794.890625 576.886719 787.449219 575.96875 780.347656 571.710938 C 778.363281 570.519531 775.886719 570.519531 773.902344 571.710938 C 762.570312 578.503906 752.371094 575.507812 745.808594 571.792969 C 737.242188 566.945312 729.480469 557.824219 723.957031 546.105469 C 717.78125 533.003906 714.515625 517.140625 714.515625 500.234375 C 714.515625 483.464844 718.84375 472.230469 727.378906 466.851562 C 736.035156 461.398438 748.0625 462.433594 756.632812 464.261719 C 766.566406 466.382812 774.34375 470.0625 774.414062 470.09375 C 776.128906 470.917969 778.121094 470.917969 779.832031 470.09375 C 787.996094 466.179688 811.242188 458.355469 825.640625 466.152344 L 830.886719 544.765625 C 824.023438 560.019531 813.726562 570.804688 802.464844 574.441406 Z M 769.707031 432.917969 C 755.328125 431.898438 744.726562 427.8125 738.808594 420.941406 C 735.089844 416.621094 733.730469 411.894531 733.277344 408.363281 C 748.269531 409.449219 759.039062 414.585938 765.34375 423.671875 C 767.585938 426.902344 768.917969 430.191406 769.707031 432.917969 Z M 701.992188 500.234375 C 701.992188 505.085938 702.25 509.851562 702.738281 514.507812 L 545.46875 514.507812 L 545.46875 239.21875 L 596.1875 239.21875 C 599.09375 253.480469 611.746094 264.246094 626.863281 264.246094 L 714.515625 264.246094 C 729.632812 264.246094 742.28125 253.480469 745.191406 239.21875 L 795.90625 239.21875 L 795.90625 451.84375 C 791.164062 452.800781 786.875 454.058594 783.386719 455.25 L 783.386719 438.476562 L 783.351562 438.476562 C 783.183594 435.53125 782.164062 426.320312 776.074219 417.1875 C 764.1875 399.371094 742.84375 395.632812 727.035156 395.632812 C 723.976562 395.632812 721.367188 397.84375 720.863281 400.859375 C 720.757812 401.484375 718.441406 416.269531 729.128906 428.882812 C 737.675781 438.960938 751.707031 444.53125 770.863281 445.511719 L 770.863281 455.25 C 758.746094 451.113281 736.878906 446.09375 720.734375 456.242188 C 708.300781 464.0625 701.992188 478.863281 701.992188 500.234375 Z M 608.078125 226.707031 L 733.296875 226.707031 L 733.296875 232.960938 C 733.296875 243.3125 724.871094 251.730469 714.515625 251.730469 L 626.863281 251.730469 C 616.503906 251.730469 608.078125 243.3125 608.078125 232.960938 Z M 839.734375 339.324219 C 839.734375 332.996094 842.105469 326.957031 846.410156 322.324219 C 848.109375 320.5 848.558594 317.839844 847.554688 315.554688 C 846.519531 313.195312 845.992188 310.664062 845.992188 308.039062 C 845.992188 297.691406 854.417969 289.269531 864.777344 289.269531 C 875.132812 289.269531 883.558594 297.691406 883.558594 308.039062 C 883.558594 310.664062 883.035156 313.195312 881.996094 315.554688 C 880.996094 317.839844 881.445312 320.5 883.144531 322.324219 C 887.449219 326.957031 889.820312 332.996094 889.820312 339.324219 C 889.820312 350.964844 881.824219 360.773438 871.039062 363.558594 L 871.039062 333.066406 C 871.039062 329.609375 868.238281 326.808594 864.777344 326.808594 C 861.316406 326.808594 858.515625 329.609375 858.515625 333.066406 L 858.515625 363.558594 C 847.726562 360.773438 839.734375 350.964844 839.734375 339.324219 Z M 898.433594 399.285156 C 892.539062 392.988281 884.203125 389.375 875.574219 389.375 L 871.039062 389.375 L 871.039062 376.332031 C 888.78125 373.34375 902.34375 357.890625 902.34375 339.324219 C 902.34375 331.140625 899.699219 323.285156 894.832031 316.816406 C 895.664062 313.984375 896.082031 311.050781 896.082031 308.039062 C 896.082031 290.792969 882.035156 276.757812 864.777344 276.757812 C 847.515625 276.757812 833.472656 290.792969 833.472656 308.039062 C 833.472656 311.050781 833.890625 313.984375 834.71875 316.816406 C 829.851562 323.285156 827.210938 331.140625 827.210938 339.324219 C 827.210938 357.890625 840.773438 373.34375 858.515625 376.332031 L 858.515625 389.375 L 853.980469 389.375 C 845.347656 389.375 837.015625 392.988281 831.121094 399.285156 C 825.222656 405.585938 822.171875 414.132812 822.746094 422.738281 L 824.714844 452.277344 C 819.421875 450.660156 813.855469 450.144531 808.429688 450.324219 L 808.429688 232.960938 C 808.429688 229.507812 805.625 226.707031 802.167969 226.707031 L 745.820312 226.707031 L 745.820312 220.449219 C 745.820312 216.992188 743.015625 214.191406 739.558594 214.191406 L 601.820312 214.191406 C 598.359375 214.191406 595.558594 216.992188 595.558594 220.449219 L 595.558594 226.707031 L 539.210938 226.707031 C 535.75 226.707031 532.949219 229.507812 532.949219 232.960938 L 532.949219 520.765625 C 532.949219 524.21875 535.75 527.019531 539.210938 527.019531 L 704.671875 527.019531 C 709.90625 552.375 722.5 572.984375 739.636719 582.683594 C 746.253906 586.425781 753.132812 588.292969 759.957031 588.292969 C 765.785156 588.292969 771.574219 586.925781 777.125 584.195312 C 786.433594 588.78125 796.449219 589.53125 806.316406 586.347656 C 816.207031 583.15625 825.375 576.070312 832.851562 566.101562 C 836.351562 579.644531 848.707031 589.585938 863.164062 589.585938 L 866.390625 589.585938 C 882.8125 589.585938 896.535156 576.757812 897.625 560.382812 L 906.808594 422.738281 C 907.382812 414.132812 904.328125 405.585938 898.433594 399.285156 "/>
</g>
<path style=" stroke:none;fill-rule:nonzero;fill:rgb(6.269836%,5.879211%,5.099487%);fill-opacity:1;" d="M 639.382812 301.785156 L 764.601562 301.785156 C 768.058594 301.785156 770.863281 298.984375 770.863281 295.527344 C 770.863281 292.074219 768.058594 289.269531 764.601562 289.269531 L 639.382812 289.269531 C 635.925781 289.269531 633.125 292.074219 633.125 295.527344 C 633.125 298.984375 635.925781 301.785156 639.382812 301.785156 "/>
<path style=" stroke:none;fill-rule:nonzero;fill:rgb(6.269836%,5.879211%,5.099487%);fill-opacity:1;" d="M 770.863281 370.605469 C 770.863281 367.152344 768.058594 364.351562 764.601562 364.351562 L 639.382812 364.351562 C 635.925781 364.351562 633.125 367.152344 633.125 370.605469 C 633.125 374.0625 635.925781 376.863281 639.382812 376.863281 L 764.601562 376.863281 C 768.058594 376.863281 770.863281 374.0625 770.863281 370.605469 "/>
<path style=" stroke:none;fill-rule:nonzero;fill:rgb(6.269836%,5.879211%,5.099487%);fill-opacity:1;" d="M 701.992188 389.375 L 639.382812 389.375 C 635.925781 389.375 633.125 392.179688 633.125 395.632812 C 633.125 399.089844 635.925781 401.890625 639.382812 401.890625 L 701.992188 401.890625 C 705.449219 401.890625 708.253906 399.089844 708.253906 395.632812 C 708.253906 392.179688 705.449219 389.375 701.992188 389.375 "/>
<path style=" stroke:none;fill-rule:nonzero;fill:rgb(6.269836%,5.879211%,5.099487%);fill-opacity:1;" d="M 701.992188 439.429688 L 639.382812 439.429688 C 635.925781 439.429688 633.125 442.230469 633.125 445.6875 C 633.125 449.140625 635.925781 451.941406 639.382812 451.941406 L 701.992188 451.941406 C 705.449219 451.941406 708.253906 449.140625 708.253906 445.6875 C 708.253906 442.230469 705.449219 439.429688 701.992188 439.429688 "/>
<path style=" stroke:none;fill-rule:nonzero;fill:rgb(6.269836%,5.879211%,5.099487%);fill-opacity:1;" d="M 689.472656 464.457031 L 639.382812 464.457031 C 635.925781 464.457031 633.125 467.257812 633.125 470.710938 C 633.125 474.167969 635.925781 476.96875 639.382812 476.96875 L 689.472656 476.96875 C 692.929688 476.96875 695.730469 474.167969 695.730469 470.710938 C 695.730469 467.257812 692.929688 464.457031 689.472656 464.457031 "/>
<path style=" stroke:none;fill-rule:nonzero;fill:rgb(6.269836%,5.879211%,5.099487%);fill-opacity:1;" d="M 639.382812 326.808594 L 701.992188 326.808594 C 705.449219 326.808594 708.253906 324.007812 708.253906 320.554688 C 708.253906 317.097656 705.449219 314.296875 701.992188 314.296875 L 639.382812 314.296875 C 635.925781 314.296875 633.125 317.097656 633.125 320.554688 C 633.125 324.007812 635.925781 326.808594 639.382812 326.808594 "/>
<path style=" stroke:none;fill-rule:nonzero;fill:rgb(6.269836%,5.879211%,5.099487%);fill-opacity:1;" d="M 608.078125 308.039062 C 608.078125 318.390625 599.652344 326.808594 589.296875 326.808594 C 578.9375 326.808594 570.515625 318.390625 570.515625 308.039062 C 570.515625 297.691406 578.9375 289.269531 589.296875 289.269531 C 592.929688 289.269531 596.328125 290.3125 599.203125 292.105469 L 585.386719 303.15625 C 582.683594 305.3125 582.246094 309.25 584.410156 311.949219 C 585.644531 313.492188 587.460938 314.296875 589.300781 314.296875 C 590.671875 314.296875 592.054688 313.847656 593.207031 312.925781 L 607.035156 301.871094 C 607.707031 303.804688 608.078125 305.882812 608.078125 308.039062 Z M 616.691406 278.128906 L 609.324219 284.019531 C 603.890625 279.488281 596.910156 276.757812 589.296875 276.757812 C 572.035156 276.757812 557.992188 290.792969 557.992188 308.039062 C 557.992188 325.289062 572.035156 339.324219 589.296875 339.324219 C 606.558594 339.324219 620.601562 325.289062 620.601562 308.039062 C 620.601562 302.910156 619.351562 298.0625 617.148438 293.785156 L 624.511719 287.898438 C 627.214844 285.742188 627.652344 281.804688 625.488281 279.105469 C 623.332031 276.40625 619.390625 275.972656 616.691406 278.128906 "/>
<path style=" stroke:none;fill-rule:nonzero;fill:rgb(6.269836%,5.879211%,5.099487%);fill-opacity:1;" d="M 608.078125 383.121094 C 608.078125 393.46875 599.652344 401.890625 589.296875 401.890625 C 578.9375 401.890625 570.515625 393.46875 570.515625 383.121094 C 570.515625 372.769531 578.9375 364.351562 589.296875 364.351562 C 592.929688 364.351562 596.328125 365.390625 599.203125 367.183594 L 585.386719 378.234375 C 582.683594 380.390625 582.246094 384.328125 584.410156 387.027344 C 585.644531 388.574219 587.460938 389.375 589.300781 389.375 C 590.671875 389.375 592.054688 388.925781 593.207031 388.003906 L 607.035156 376.953125 C 607.707031 378.886719 608.078125 380.960938 608.078125 383.121094 Z M 616.691406 353.207031 L 609.324219 359.097656 C 603.890625 354.566406 596.910156 351.835938 589.296875 351.835938 C 572.035156 351.835938 557.992188 365.871094 557.992188 383.121094 C 557.992188 400.367188 572.035156 414.402344 589.296875 414.402344 C 606.558594 414.402344 620.601562 400.367188 620.601562 383.121094 C 620.601562 377.988281 619.351562 373.140625 617.148438 368.867188 L 624.511719 362.976562 C 627.214844 360.820312 627.652344 356.882812 625.488281 354.1875 C 623.332031 351.484375 619.390625 351.050781 616.691406 353.207031 "/>
<path style=" stroke:none;fill-rule:nonzero;fill:rgb(6.269836%,5.879211%,5.099487%);fill-opacity:1;" d="M 608.078125 458.199219 C 608.078125 468.550781 599.652344 476.96875 589.296875 476.96875 C 578.9375 476.96875 570.515625 468.550781 570.515625 458.199219 C 570.515625 447.847656 578.9375 439.429688 589.296875 439.429688 C 592.929688 439.429688 596.328125 440.472656 599.203125 442.265625 L 585.386719 453.3125 C 582.683594 455.46875 582.246094 459.410156 584.410156 462.105469 C 585.644531 463.652344 587.460938 464.457031 589.300781 464.457031 C 590.671875 464.457031 592.054688 464.007812 593.207031 463.082031 L 607.035156 452.03125 C 607.707031 453.964844 608.078125 456.039062 608.078125 458.199219 Z M 616.691406 428.289062 L 609.324219 434.175781 C 603.890625 429.648438 596.910156 426.914062 589.296875 426.914062 C 572.035156 426.914062 557.992188 440.949219 557.992188 458.199219 C 557.992188 475.445312 572.035156 489.480469 589.296875 489.480469 C 606.558594 489.480469 620.601562 475.445312 620.601562 458.199219 C 620.601562 453.066406 619.351562 448.222656 617.148438 443.945312 L 624.511719 438.058594 C 627.214844 435.902344 627.652344 431.960938 625.488281 429.265625 C 623.332031 426.566406 619.390625 426.128906 616.691406 428.289062 "/>
</g>
</svg>
